<?xml version="1.0" encoding="utf-8"?>
<svg id="svg" version="1.1" xmlns="http://www.w3.org/2000/svg" xmlns:xlink="http://www.w3.org/1999/xlink" width="400" height="151.72413793103448" viewBox="0, 0, 400,151.72413793103448">
<g id="svgg"><path id="path0" d="M134.083 9.280 C 132.998 9.523,132.081 9.932,131.466 10.445 C 131.081 10.767,130.462 11.176,130.091 11.353 C 129.487 11.643,127.847 13.162,125.398 15.700 C 124.929 16.186,124.380 16.910,124.178 17.308 C 123.975 17.707,123.515 18.353,123.155 18.744 C 122.795 19.134,122.193 20.110,121.817 20.911 C 121.442 21.713,120.879 22.651,120.566 22.997 C 120.217 23.383,119.782 24.209,119.436 25.138 C 119.127 25.971,118.650 26.936,118.378 27.284 C 117.712 28.133,117.573 28.419,117.088 29.944 C 116.860 30.662,116.372 31.691,116.004 32.230 C 115.625 32.785,115.187 33.724,114.994 34.397 C 114.552 35.938,114.437 36.207,113.664 37.500 C 113.309 38.096,112.854 39.183,112.654 39.917 C 112.281 41.289,111.796 42.424,111.090 43.577 C 110.868 43.940,110.523 44.915,110.323 45.744 C 110.108 46.637,109.670 47.792,109.248 48.583 C 108.857 49.317,108.416 50.329,108.269 50.833 C 108.122 51.337,107.854 52.275,107.672 52.917 C 107.491 53.558,107.081 54.489,106.761 54.984 C 106.335 55.645,106.062 56.394,105.734 57.802 C 105.426 59.128,105.067 60.139,104.572 61.079 C 104.142 61.893,103.680 63.127,103.418 64.160 C 103.000 65.810,102.811 66.262,101.915 67.749 C 101.694 68.115,101.318 69.257,101.079 70.285 C 100.839 71.314,100.454 72.514,100.222 72.953 C 99.331 74.634,99.202 74.968,98.771 76.716 C 98.486 77.869,98.064 79.013,97.597 79.900 C 97.149 80.749,96.759 81.792,96.587 82.600 C 96.184 84.490,95.863 85.463,95.315 86.455 C 94.838 87.321,94.475 88.523,93.919 91.083 C 93.760 91.817,93.368 93.017,93.047 93.750 C 92.372 95.297,92.091 97.336,92.440 98.166 C 93.572 100.858,96.111 102.066,98.755 101.170 C 100.207 100.678,100.383 100.559,100.958 99.681 C 101.245 99.243,101.810 98.497,102.214 98.024 C 102.618 97.551,103.192 96.658,103.490 96.040 C 103.788 95.422,104.318 94.617,104.668 94.250 C 105.018 93.883,105.540 93.081,105.827 92.467 C 106.114 91.852,106.653 90.990,107.024 90.550 C 107.395 90.110,107.907 89.300,108.162 88.750 C 108.417 88.200,108.865 87.525,109.156 87.251 C 109.448 86.976,110.001 86.160,110.385 85.437 C 110.769 84.714,111.354 83.814,111.685 83.436 C 112.015 83.059,112.454 82.412,112.660 82.000 C 112.866 81.587,113.352 80.912,113.741 80.500 C 114.130 80.087,114.659 79.375,114.918 78.917 C 115.177 78.458,115.684 77.746,116.044 77.333 C 116.405 76.921,116.995 76.088,117.355 75.483 C 117.715 74.877,118.315 74.136,118.689 73.835 C 119.063 73.535,119.480 73.018,119.617 72.686 C 120.212 71.238,121.022 70.925,121.553 71.939 C 121.859 72.524,121.474 74.811,120.911 75.750 C 120.165 76.996,119.859 77.801,119.507 79.443 C 119.083 81.424,118.725 82.581,118.330 83.250 C 117.808 84.132,117.512 85.276,117.090 88.044 C 116.864 89.532,116.582 91.275,116.464 91.917 C 115.261 98.475,120.875 104.955,126.460 103.455 C 127.759 103.106,129.759 101.206,131.214 98.940 C 131.575 98.377,132.138 97.645,132.464 97.313 C 132.791 96.981,133.289 96.234,133.571 95.654 C 134.901 92.918,135.748 94.389,135.353 98.750 C 135.083 101.739,135.765 103.105,137.860 103.770 C 140.530 104.616,143.536 103.119,144.979 100.223 C 145.169 99.842,145.623 99.185,145.989 98.763 C 146.354 98.341,146.959 97.341,147.335 96.540 C 147.710 95.739,148.233 94.858,148.498 94.583 C 148.763 94.308,149.198 93.596,149.466 93.000 C 149.733 92.404,150.237 91.579,150.586 91.167 C 150.935 90.754,151.476 89.865,151.790 89.190 C 152.104 88.515,152.644 87.653,152.990 87.273 C 153.336 86.894,153.858 86.077,154.151 85.459 C 154.444 84.841,154.976 83.997,155.333 83.583 C 155.691 83.170,156.214 82.348,156.496 81.757 C 156.779 81.166,157.222 80.531,157.481 80.347 C 157.741 80.162,158.228 79.487,158.565 78.846 C 158.901 78.206,159.497 77.307,159.889 76.848 C 160.280 76.389,160.780 75.655,160.998 75.215 C 161.217 74.776,161.744 74.042,162.168 73.583 C 162.593 73.125,163.133 72.412,163.370 72.000 C 163.891 71.088,164.263 70.748,164.908 70.594 C 165.178 70.530,165.649 70.257,165.955 69.989 C 166.909 69.151,166.937 69.208,167.064 72.250 C 167.284 77.525,168.553 79.917,172.070 81.684 L 173.417 82.361 174.833 82.248 C 175.926 82.161,176.620 81.984,177.869 81.474 C 180.486 80.406,181.100 80.365,181.803 81.213 C 182.052 81.514,181.269 86.047,180.662 87.819 C 179.665 90.729,179.556 94.412,180.427 95.742 C 180.556 95.939,180.886 96.722,181.161 97.483 C 181.849 99.390,182.113 99.763,183.939 101.416 C 187.604 104.732,190.551 104.478,193.399 100.599 C 193.809 100.040,194.382 99.358,194.671 99.083 C 194.961 98.808,195.372 98.246,195.584 97.833 C 195.796 97.421,196.246 96.821,196.584 96.500 C 196.921 96.179,197.425 95.467,197.704 94.917 C 197.984 94.367,198.531 93.504,198.921 93.000 C 199.312 92.496,199.869 91.596,200.159 91.000 C 200.449 90.404,200.940 89.654,201.248 89.333 C 201.557 89.013,202.077 88.160,202.404 87.440 C 202.731 86.719,203.231 85.864,203.516 85.539 C 203.801 85.215,204.359 84.250,204.755 83.397 C 205.151 82.543,205.704 81.560,205.983 81.213 C 206.262 80.866,206.688 80.095,206.930 79.499 C 207.596 77.860,209.041 76.667,210.360 76.667 C 210.585 76.667,211.040 77.938,211.573 80.054 C 211.882 81.280,212.304 82.614,212.511 83.017 C 213.583 85.104,213.538 89.349,212.425 91.047 C 212.283 91.264,211.980 91.990,211.752 92.661 C 210.343 96.804,207.058 97.965,204.008 95.398 C 203.128 94.657,201.270 95.058,200.815 96.087 C 200.169 97.547,200.194 97.765,201.109 98.635 C 201.561 99.065,202.139 99.699,202.393 100.044 C 202.646 100.389,203.206 100.850,203.637 101.068 C 204.068 101.287,204.832 101.775,205.335 102.154 C 207.365 103.683,211.598 104.184,215.750 103.386 C 217.216 103.105,217.474 102.998,218.333 102.317 C 218.654 102.063,219.452 101.584,220.107 101.254 C 220.762 100.923,221.730 100.274,222.258 99.812 C 222.787 99.349,223.496 98.796,223.835 98.582 C 224.174 98.369,224.701 97.878,225.006 97.492 C 225.312 97.106,225.848 96.583,226.198 96.330 C 226.548 96.076,227.168 95.416,227.576 94.861 C 227.984 94.307,228.460 93.777,228.633 93.684 C 228.807 93.592,229.384 92.868,229.917 92.076 C 231.009 90.452,231.054 90.420,232.085 90.575 L 232.833 90.687 232.833 91.980 C 232.833 93.588,233.084 95.071,233.485 95.833 C 233.654 96.154,233.924 96.829,234.086 97.333 C 234.527 98.709,235.046 99.648,235.942 100.688 C 236.386 101.204,236.951 101.888,237.197 102.207 C 237.670 102.821,240.909 104.865,242.044 105.265 C 243.401 105.744,244.897 105.423,246.072 104.400 C 247.923 102.789,250.112 100.426,250.556 99.558 C 250.704 99.269,251.209 98.556,251.678 97.974 C 252.147 97.393,252.746 96.493,253.009 95.975 C 253.536 94.940,254.093 94.413,254.834 94.250 C 255.101 94.191,255.548 93.882,255.828 93.563 C 256.424 92.885,256.337 92.730,257.008 95.656 C 257.701 98.681,258.389 99.708,261.436 102.267 C 263.550 104.042,266.789 104.135,268.287 102.463 C 268.542 102.179,269.241 101.415,269.841 100.765 C 270.441 100.115,271.176 99.156,271.474 98.633 C 271.772 98.110,272.303 97.455,272.654 97.177 C 273.033 96.876,273.476 96.282,273.745 95.711 C 274.342 94.444,274.643 94.106,274.951 94.362 C 275.463 94.787,275.545 95.262,275.518 97.656 C 275.468 102.043,276.982 103.759,280.518 103.323 C 281.738 103.172,281.759 103.161,282.667 102.195 C 283.171 101.659,283.784 101.091,284.029 100.933 C 284.277 100.773,284.783 100.051,285.173 99.302 C 285.557 98.563,286.125 97.678,286.435 97.335 C 286.745 96.992,287.186 96.287,287.415 95.769 C 287.644 95.252,288.123 94.510,288.479 94.122 C 288.834 93.734,289.436 92.796,289.816 92.038 C 290.196 91.280,290.765 90.374,291.081 90.025 C 291.396 89.676,291.803 89.042,291.986 88.617 C 292.168 88.191,292.609 87.522,292.967 87.130 C 293.324 86.738,293.904 85.854,294.257 85.167 C 294.609 84.479,295.211 83.574,295.594 83.154 C 295.978 82.735,296.441 82.060,296.624 81.654 C 296.807 81.249,297.197 80.692,297.491 80.417 C 297.785 80.142,298.406 79.279,298.870 78.500 C 299.335 77.721,299.996 76.783,300.340 76.417 C 300.684 76.050,301.115 75.450,301.298 75.083 C 301.678 74.322,302.079 73.921,302.851 73.526 C 303.226 73.335,303.461 73.047,303.616 72.591 C 303.739 72.228,304.006 71.754,304.210 71.537 L 304.580 71.143 304.957 71.581 C 305.527 72.244,305.182 74.148,304.356 74.896 C 304.000 75.218,303.807 75.812,303.321 78.083 C 303.094 79.142,302.699 80.298,302.237 81.250 C 301.634 82.495,301.438 83.160,301.086 85.167 C 300.852 86.496,300.381 88.483,300.040 89.583 C 299.464 91.440,299.419 91.733,299.418 93.667 L 299.417 95.750 300.401 97.833 C 301.115 99.344,301.573 100.090,302.068 100.547 C 302.443 100.894,303.143 101.558,303.623 102.022 C 305.665 103.995,309.463 104.253,311.434 102.553 C 312.113 101.967,314.424 99.141,315.083 98.090 C 315.450 97.506,315.959 96.864,316.214 96.664 C 316.470 96.463,316.909 95.838,317.190 95.275 C 317.471 94.711,317.997 93.895,318.359 93.461 C 318.720 93.027,319.314 92.067,319.679 91.329 C 320.043 90.590,320.449 89.945,320.579 89.895 C 321.473 89.552,323.222 92.146,324.075 95.080 C 324.245 95.664,324.599 96.295,325.046 96.811 C 325.433 97.257,325.959 97.895,326.215 98.228 C 326.627 98.763,327.409 99.424,329.030 100.606 C 330.022 101.329,333.858 101.797,335.668 101.416 C 337.766 100.975,338.082 100.736,342.772 96.042 C 344.535 94.277,346.018 92.833,346.068 92.833 C 346.222 92.833,346.611 93.693,347.086 95.083 C 347.336 95.817,347.856 96.867,348.241 97.417 C 348.626 97.967,349.214 98.872,349.548 99.429 C 350.179 100.481,352.744 102.298,354.444 102.896 C 356.448 103.602,359.021 102.029,361.061 98.848 C 361.508 98.152,362.120 97.309,362.422 96.974 C 362.723 96.639,363.125 96.015,363.315 95.586 C 363.505 95.157,363.988 94.441,364.390 93.994 C 364.819 93.517,365.319 92.690,365.602 91.991 C 365.867 91.336,366.359 90.483,366.696 90.097 C 367.032 89.711,367.607 88.747,367.973 87.956 C 368.338 87.164,368.869 86.229,369.153 85.876 C 369.436 85.523,369.923 84.620,370.235 83.869 C 370.547 83.118,371.024 82.222,371.295 81.877 C 371.898 81.109,372.201 80.516,372.577 79.367 C 372.736 78.881,373.117 78.153,373.425 77.751 C 374.101 76.865,374.526 76.040,374.907 74.875 C 375.065 74.393,375.460 73.681,375.786 73.291 C 376.452 72.496,376.825 71.708,377.319 70.047 C 377.506 69.422,377.850 68.650,378.085 68.332 C 378.589 67.648,378.512 67.549,377.045 67.000 C 375.616 66.465,375.427 66.598,374.573 68.729 C 374.324 69.351,373.797 70.239,373.403 70.701 C 373.008 71.163,372.556 71.900,372.399 72.338 C 372.242 72.775,371.711 73.678,371.221 74.343 C 370.730 75.008,370.198 75.922,370.039 76.375 C 369.880 76.827,369.433 77.569,369.045 78.024 C 368.658 78.480,368.035 79.504,367.662 80.301 C 367.289 81.098,366.764 81.977,366.496 82.254 C 366.228 82.531,365.773 83.243,365.485 83.837 C 365.198 84.431,364.706 85.201,364.392 85.549 C 364.078 85.897,363.520 86.797,363.153 87.549 C 362.786 88.301,362.234 89.179,361.926 89.500 C 361.619 89.821,361.140 90.533,360.861 91.083 C 360.583 91.633,360.021 92.485,359.612 92.977 C 359.204 93.468,358.677 94.262,358.443 94.741 C 357.892 95.866,357.705 96.007,356.286 96.367 C 355.013 96.691,355.070 96.710,354.577 95.800 C 354.004 94.743,354.399 90.890,355.315 88.603 C 355.602 87.887,355.990 86.501,356.177 85.525 C 356.739 82.587,356.821 82.302,357.505 80.917 C 357.866 80.183,358.382 78.716,358.650 77.655 C 358.963 76.423,359.415 75.189,359.903 74.238 C 360.416 73.240,360.780 72.229,361.010 71.167 C 361.248 70.065,361.574 69.177,362.080 68.247 C 362.574 67.340,362.968 66.278,363.306 64.941 C 363.648 63.587,363.991 62.668,364.399 62.007 C 365.724 59.860,365.620 58.461,363.995 56.541 C 362.666 54.970,362.378 54.830,361.058 55.106 C 359.489 55.435,359.375 55.536,358.558 57.296 C 358.149 58.177,357.564 59.174,357.258 59.513 C 356.952 59.852,356.470 60.615,356.186 61.209 C 355.212 63.251,354.595 62.936,353.596 59.884 C 353.440 59.408,353.163 58.829,352.981 58.597 C 352.798 58.364,352.381 57.596,352.055 56.889 C 349.941 52.314,344.770 51.146,340.616 54.304 C 339.993 54.779,339.377 55.167,339.247 55.167 C 338.966 55.167,337.345 56.691,334.458 59.670 C 333.840 60.309,333.333 60.912,333.333 61.011 C 333.333 61.110,332.933 61.617,332.444 62.137 C 331.956 62.658,331.267 63.571,330.915 64.167 C 330.563 64.762,330.028 65.529,329.725 65.871 C 329.423 66.212,328.917 67.004,328.602 67.629 C 328.287 68.255,327.769 69.078,327.451 69.459 C 327.133 69.839,326.662 70.736,326.405 71.450 C 325.982 72.625,325.770 73.023,324.790 74.481 C 324.629 74.721,324.329 75.436,324.124 76.070 C 323.870 76.853,323.530 77.468,323.064 77.987 C 322.687 78.406,322.096 79.313,321.752 80.000 C 321.407 80.688,320.870 81.533,320.559 81.879 C 320.248 82.225,319.768 82.974,319.492 83.544 C 319.216 84.113,318.737 84.843,318.428 85.165 C 318.120 85.487,317.593 86.300,317.258 86.972 C 316.923 87.643,316.365 88.506,316.017 88.888 C 315.670 89.271,315.134 90.059,314.828 90.641 C 314.521 91.222,314.034 91.878,313.745 92.098 C 313.457 92.318,313.018 92.871,312.770 93.327 C 312.011 94.720,310.139 96.333,309.279 96.333 C 307.795 96.333,307.791 92.564,309.273 89.622 C 309.596 88.979,310.010 87.845,310.192 87.101 C 310.723 84.936,311.008 84.143,311.611 83.155 C 311.965 82.573,312.362 81.522,312.671 80.343 C 312.976 79.180,313.421 77.997,313.834 77.248 C 314.264 76.470,314.686 75.329,315.015 74.060 C 315.360 72.723,315.734 71.733,316.167 71.000 C 316.602 70.265,316.973 69.275,317.324 67.920 C 317.608 66.821,317.990 65.659,318.172 65.336 C 318.902 64.046,319.203 63.251,319.578 61.621 C 319.793 60.683,320.089 59.470,320.235 58.923 C 321.233 55.185,318.323 51.970,314.888 53.016 C 314.042 53.273,313.557 53.547,313.000 54.079 C 312.587 54.473,311.936 54.989,311.553 55.226 C 311.170 55.463,310.627 55.989,310.347 56.396 C 310.067 56.803,309.573 57.300,309.250 57.500 C 308.927 57.700,308.435 58.193,308.159 58.595 C 307.882 58.998,307.357 59.566,306.993 59.859 C 306.629 60.151,306.099 60.753,305.815 61.195 C 305.531 61.637,305.075 62.188,304.802 62.418 C 304.528 62.648,303.961 63.305,303.542 63.877 C 303.123 64.449,302.457 65.278,302.062 65.720 C 301.667 66.163,301.109 66.934,300.823 67.435 C 300.536 67.937,300.118 68.467,299.894 68.613 C 299.671 68.760,299.197 69.376,298.842 69.982 C 298.487 70.588,297.958 71.308,297.667 71.583 C 297.376 71.858,296.845 72.571,296.488 73.167 C 295.691 74.496,295.431 74.833,295.203 74.833 C 294.848 74.833,294.010 75.861,293.904 76.425 C 293.845 76.743,293.645 77.194,293.461 77.428 L 293.126 77.854 292.726 77.477 C 292.070 76.861,292.467 73.923,293.270 73.452 C 293.528 73.300,293.861 72.227,294.426 69.725 C 294.644 68.760,295.118 67.321,295.480 66.527 C 296.342 64.635,296.559 63.521,296.554 61.000 C 296.550 58.354,296.155 57.492,293.930 55.277 L 293.276 54.626 292.013 54.733 C 290.445 54.866,290.093 55.205,289.432 57.214 C 289.184 57.967,288.714 58.973,288.387 59.448 C 287.976 60.045,287.640 60.871,287.302 62.115 C 287.033 63.106,286.632 64.217,286.412 64.583 C 285.692 65.783,285.372 66.593,284.993 68.184 C 284.595 69.851,284.314 70.545,283.822 71.086 C 283.653 71.271,283.181 72.193,282.771 73.136 C 282.308 74.204,281.778 75.120,281.365 75.568 C 281.001 75.963,280.552 76.629,280.366 77.048 C 280.181 77.466,279.732 78.133,279.369 78.529 C 279.005 78.926,278.432 79.800,278.095 80.472 C 277.758 81.143,277.196 82.006,276.846 82.388 C 276.496 82.771,276.015 83.470,275.777 83.942 C 275.539 84.414,275.048 85.143,274.685 85.562 C 274.322 85.981,273.780 86.833,273.480 87.454 C 273.180 88.075,272.616 88.932,272.227 89.358 C 271.837 89.784,271.407 90.401,271.269 90.729 C 271.132 91.058,270.689 91.684,270.285 92.121 C 269.881 92.559,269.230 93.461,268.839 94.127 C 268.447 94.793,267.825 95.576,267.457 95.867 C 267.090 96.158,266.528 96.804,266.210 97.301 C 264.473 100.016,264.003 93.624,265.662 89.844 C 265.926 89.242,266.369 87.658,266.646 86.324 C 267.209 83.616,267.314 83.282,267.891 82.381 C 268.353 81.661,268.634 80.893,269.237 78.709 C 269.491 77.787,269.894 76.817,270.239 76.293 C 270.590 75.761,271.013 74.734,271.317 73.680 C 271.644 72.545,272.025 71.642,272.416 71.073 C 272.763 70.570,273.257 69.458,273.588 68.436 C 273.903 67.465,274.431 66.263,274.762 65.765 C 275.107 65.245,275.600 64.105,275.921 63.083 C 276.227 62.105,276.790 60.790,277.171 60.159 C 278.549 57.880,278.464 56.191,276.882 54.396 C 274.707 51.928,272.461 52.199,271.154 55.087 C 270.864 55.727,270.365 56.541,270.045 56.896 C 269.475 57.528,269.182 58.097,268.590 59.719 C 268.429 60.160,268.035 60.865,267.715 61.285 C 267.394 61.705,266.883 62.717,266.579 63.534 C 266.276 64.351,265.748 65.425,265.407 65.921 C 265.065 66.416,264.537 67.546,264.233 68.431 C 263.928 69.316,263.417 70.425,263.096 70.895 C 262.775 71.365,262.276 72.425,261.988 73.250 C 261.610 74.328,261.276 74.953,260.800 75.471 C 260.435 75.867,259.989 76.526,259.808 76.935 C 259.627 77.345,259.145 78.055,258.738 78.514 C 258.330 78.973,257.733 79.872,257.411 80.511 C 257.089 81.151,256.526 81.983,256.160 82.360 C 255.794 82.737,255.304 83.426,255.070 83.890 C 254.837 84.355,254.355 85.051,253.999 85.437 C 253.643 85.823,253.126 86.587,252.849 87.135 C 252.573 87.683,252.041 88.484,251.668 88.916 C 251.294 89.347,250.810 90.053,250.591 90.484 C 250.373 90.915,249.857 91.610,249.446 92.027 C 249.034 92.445,248.542 93.091,248.352 93.463 C 248.163 93.834,247.621 94.576,247.148 95.111 C 246.676 95.646,246.039 96.470,245.733 96.942 C 244.345 99.087,242.487 99.657,241.515 98.238 C 240.643 96.966,241.443 90.250,242.758 87.800 C 242.989 87.369,243.402 86.145,243.675 85.079 C 244.187 83.080,244.375 82.611,245.089 81.559 C 245.319 81.220,245.624 80.524,245.766 80.013 C 246.349 77.917,246.695 77.042,247.253 76.257 C 247.606 75.761,248.038 74.792,248.336 73.825 C 248.609 72.941,249.017 71.963,249.242 71.651 C 249.912 70.725,250.285 69.967,250.589 68.912 C 250.894 67.853,251.557 66.421,251.817 66.260 C 251.902 66.207,252.356 65.454,252.823 64.586 C 253.888 62.611,253.734 62.681,257.464 62.485 C 262.291 62.231,263.442 61.606,264.520 58.648 C 264.714 58.116,265.137 57.372,265.459 56.995 L 266.045 56.311 265.814 55.197 L 265.583 54.083 264.833 53.971 C 264.421 53.909,263.288 53.852,262.316 53.846 C 259.851 53.828,258.428 52.798,258.992 51.436 C 259.110 51.150,259.487 49.966,259.830 48.804 C 260.204 47.535,260.662 46.375,260.976 45.900 C 261.622 44.925,261.627 44.616,261.016 43.296 C 260.520 42.222,257.460 39.015,256.493 38.555 C 255.512 38.088,254.115 37.500,253.987 37.500 C 253.762 37.500,253.020 38.875,252.645 39.987 C 252.454 40.552,252.044 41.384,251.733 41.836 C 251.422 42.288,251.017 43.147,250.834 43.746 C 250.650 44.344,250.344 45.340,250.154 45.958 C 249.964 46.577,249.623 47.327,249.396 47.625 C 248.857 48.331,248.602 48.962,248.172 50.645 C 247.694 52.518,247.329 52.937,245.052 54.228 C 244.509 54.536,242.474 54.624,241.163 54.396 C 240.415 54.267,239.346 54.143,238.787 54.122 L 237.771 54.083 237.452 55.083 C 237.068 56.284,237.252 58.350,237.812 59.137 C 237.990 59.386,238.335 60.013,238.580 60.531 C 239.103 61.636,239.261 61.793,240.583 62.536 C 241.362 62.974,241.606 63.206,241.688 63.590 C 242.070 65.372,241.446 67.643,240.083 69.428 C 239.781 69.824,239.320 70.685,239.059 71.341 C 238.792 72.011,238.283 72.875,237.898 73.309 C 237.521 73.735,236.985 74.534,236.707 75.086 C 236.429 75.637,235.892 76.462,235.513 76.919 C 235.135 77.376,234.586 78.226,234.293 78.807 C 234.000 79.389,233.553 80.040,233.299 80.253 C 233.045 80.467,232.574 81.092,232.251 81.642 C 231.928 82.193,231.440 82.867,231.167 83.141 C 230.893 83.415,230.283 84.226,229.811 84.944 C 229.339 85.662,228.707 86.457,228.407 86.709 C 228.107 86.962,227.636 87.535,227.360 87.983 C 227.084 88.430,226.581 89.009,226.241 89.268 C 225.902 89.527,225.331 90.135,224.973 90.619 C 224.616 91.104,224.223 91.500,224.101 91.500 C 223.009 91.500,221.546 88.501,220.738 84.605 C 220.454 83.238,220.100 82.124,219.645 81.167 C 219.136 80.096,218.851 79.140,218.476 77.250 C 218.203 75.875,217.789 74.225,217.557 73.583 C 215.668 68.360,216.168 64.551,219.142 61.512 C 220.675 59.945,223.567 59.484,224.521 60.654 C 225.234 61.528,225.009 64.735,224.090 66.793 C 222.889 69.483,223.167 71.625,224.879 72.884 C 226.077 73.766,228.478 74.074,229.282 73.449 C 229.879 72.986,230.321 72.470,230.328 72.227 C 230.331 72.123,230.611 71.635,230.950 71.144 C 232.322 69.153,232.455 62.229,231.160 60.167 C 230.901 59.754,230.422 58.667,230.096 57.750 C 229.579 56.296,229.391 55.976,228.627 55.239 C 228.144 54.774,227.525 54.113,227.250 53.770 C 225.860 52.036,218.685 52.112,215.917 53.890 C 215.458 54.184,214.495 54.723,213.775 55.087 C 212.858 55.552,212.287 55.974,211.867 56.500 C 211.537 56.913,210.922 57.590,210.501 58.005 C 209.690 58.805,209.503 59.205,208.395 62.500 L 207.750 64.417 207.750 67.346 C 207.750 69.975,207.713 70.360,207.393 71.096 C 207.196 71.548,206.896 72.252,206.726 72.663 C 206.556 73.073,206.132 73.738,205.784 74.140 C 205.436 74.542,204.862 75.444,204.508 76.144 C 204.155 76.844,203.626 77.642,203.334 77.917 C 203.041 78.192,202.587 78.840,202.324 79.357 C 202.061 79.875,201.558 80.631,201.207 81.037 C 200.855 81.444,200.257 82.371,199.879 83.097 C 199.501 83.823,198.953 84.642,198.661 84.917 C 198.370 85.192,197.928 85.833,197.680 86.341 C 197.432 86.849,196.916 87.660,196.534 88.143 C 196.153 88.626,195.564 89.548,195.225 90.192 C 194.887 90.836,194.432 91.479,194.215 91.621 C 193.998 91.764,193.530 92.376,193.175 92.982 C 192.820 93.588,192.291 94.308,191.999 94.583 C 191.707 94.858,191.213 95.458,190.900 95.917 C 189.619 97.795,189.359 97.827,188.629 96.197 C 188.035 94.868,188.659 90.083,189.737 87.695 C 190.061 86.979,190.549 85.399,190.823 84.184 C 191.097 82.969,191.427 81.775,191.557 81.529 C 191.687 81.284,192.018 80.671,192.293 80.167 C 192.568 79.662,192.960 78.558,193.164 77.713 C 193.423 76.638,193.755 75.812,194.267 74.963 C 194.670 74.296,195.154 73.225,195.343 72.583 C 195.837 70.900,196.144 70.150,196.571 69.583 C 197.153 68.811,197.319 68.436,197.830 66.733 C 198.091 65.864,198.487 64.912,198.711 64.618 C 199.336 63.796,199.628 63.146,200.013 61.724 C 200.207 61.005,200.592 60.004,200.869 59.500 C 201.301 58.712,201.809 57.056,201.827 56.371 C 201.831 56.255,201.547 55.842,201.197 55.455 C 200.846 55.067,200.391 54.470,200.185 54.128 C 199.026 52.206,196.062 52.282,195.238 54.254 C 195.103 54.577,194.736 55.125,194.422 55.473 C 193.822 56.136,193.177 57.321,192.840 58.376 C 192.730 58.721,192.317 59.433,191.923 59.960 C 191.476 60.557,191.037 61.429,190.755 62.281 C 190.466 63.159,190.054 63.968,189.601 64.551 C 189.093 65.205,188.773 65.874,188.448 66.956 C 188.172 67.876,187.785 68.737,187.446 69.186 C 187.142 69.588,186.575 70.497,186.185 71.207 C 185.594 72.286,185.278 72.649,184.261 73.414 C 183.591 73.918,182.940 74.455,182.813 74.608 C 181.012 76.785,176.524 76.138,175.732 73.587 L 175.371 72.423 176.026 70.594 C 176.387 69.587,176.860 67.919,177.079 66.887 C 177.383 65.454,177.654 64.685,178.227 63.631 C 179.015 62.181,179.867 59.240,180.075 57.250 C 180.277 55.322,178.981 53.419,177.083 52.854 L 175.917 52.507 174.629 52.854 C 173.561 53.142,173.241 53.312,172.754 53.850 C 172.432 54.208,171.790 54.771,171.328 55.103 C 170.867 55.434,170.272 56.021,170.007 56.406 C 169.742 56.791,169.255 57.289,168.924 57.511 C 168.594 57.734,168.101 58.260,167.829 58.680 C 167.558 59.099,167.039 59.681,166.676 59.973 C 166.313 60.264,165.738 60.922,165.399 61.433 C 165.059 61.945,164.635 62.450,164.457 62.557 C 164.278 62.663,163.750 63.313,163.283 64.000 C 162.816 64.688,162.121 65.587,161.738 66.000 C 161.356 66.412,160.889 67.050,160.702 67.417 C 160.515 67.783,160.049 68.383,159.667 68.750 C 159.284 69.117,158.820 69.717,158.635 70.083 C 158.450 70.450,158.003 71.056,157.642 71.430 C 157.281 71.804,156.625 72.730,156.183 73.488 C 155.584 74.516,155.216 74.958,154.732 75.228 C 154.231 75.507,154.026 75.762,153.830 76.348 C 153.691 76.766,153.437 77.322,153.265 77.584 L 152.952 78.061 152.480 77.532 C 151.978 76.970,151.982 77.038,152.350 75.080 C 152.444 74.583,152.694 74.025,152.967 73.706 C 153.419 73.176,153.682 72.355,154.260 69.667 C 154.408 68.979,154.857 67.704,155.258 66.833 C 156.509 64.116,157.012 59.771,156.365 57.277 C 155.963 55.726,153.385 52.859,152.608 53.099 C 150.748 53.673,150.019 54.540,149.258 57.083 C 149.011 57.908,148.567 58.958,148.270 59.417 C 147.610 60.437,147.465 60.813,146.929 62.876 C 146.689 63.800,146.220 65.025,145.843 65.713 C 145.414 66.495,145.052 67.483,144.820 68.503 C 144.624 69.372,144.248 70.458,143.986 70.917 C 143.724 71.375,143.139 72.500,142.685 73.417 C 142.232 74.333,141.623 75.308,141.332 75.583 C 141.040 75.858,140.537 76.606,140.214 77.244 C 139.891 77.882,139.342 78.744,138.995 79.160 C 138.647 79.576,138.129 80.404,137.843 80.999 C 137.556 81.595,137.033 82.382,136.679 82.749 C 136.325 83.116,135.805 83.889,135.522 84.467 C 135.239 85.045,134.676 85.945,134.269 86.467 C 133.863 86.989,133.364 87.776,133.160 88.215 C 132.957 88.654,132.533 89.254,132.219 89.548 C 131.904 89.843,131.419 90.509,131.140 91.030 C 130.861 91.550,130.296 92.370,129.885 92.852 C 129.474 93.334,128.844 94.160,128.486 94.687 C 127.686 95.865,127.789 95.804,126.373 95.936 C 124.500 96.110,124.086 94.388,125.359 91.719 C 125.629 91.152,126.114 89.616,126.435 88.305 C 126.847 86.625,127.209 85.577,127.661 84.753 C 128.055 84.035,128.499 82.829,128.810 81.632 C 129.126 80.415,129.566 79.224,129.981 78.466 C 130.384 77.727,130.816 76.570,131.081 75.518 C 131.347 74.465,131.810 73.225,132.264 72.352 C 132.766 71.387,133.171 70.265,133.500 68.927 C 133.795 67.730,134.177 66.634,134.460 66.177 C 135.102 65.137,135.248 64.729,135.819 62.366 C 136.092 61.238,136.517 59.963,136.763 59.532 C 137.109 58.928,137.230 58.453,137.294 57.446 L 137.378 56.143 136.796 55.530 C 136.476 55.193,135.970 54.553,135.671 54.108 C 134.346 52.137,131.667 52.248,129.164 54.377 C 126.943 56.267,122.488 61.016,121.388 62.667 C 121.236 62.896,120.711 63.509,120.222 64.029 C 119.733 64.550,119.333 65.062,119.333 65.169 C 119.333 65.275,118.893 65.824,118.354 66.389 C 117.816 66.954,117.252 67.659,117.102 67.954 C 116.952 68.250,116.543 68.775,116.194 69.121 C 115.845 69.467,115.205 70.329,114.771 71.036 C 114.338 71.744,113.766 72.477,113.502 72.665 C 113.237 72.854,112.816 73.437,112.565 73.962 C 112.015 75.115,111.707 75.500,111.333 75.500 C 110.046 75.500,110.226 72.414,111.669 69.750 C 112.064 69.022,112.467 67.900,112.742 66.765 C 113.305 64.435,114.186 63.079,117.341 59.681 C 118.582 58.344,119.778 56.987,119.998 56.667 C 120.218 56.346,120.684 55.833,121.033 55.528 C 121.383 55.222,121.859 54.647,122.092 54.250 C 122.325 53.853,122.775 53.330,123.092 53.088 C 123.409 52.847,123.920 52.259,124.229 51.783 C 124.538 51.306,125.033 50.692,125.329 50.417 C 125.625 50.142,126.119 49.527,126.427 49.050 C 126.734 48.573,127.257 47.898,127.589 47.550 C 127.921 47.202,128.491 46.408,128.857 45.786 C 129.222 45.164,129.777 44.422,130.091 44.137 C 130.404 43.852,130.823 43.281,131.023 42.868 C 131.223 42.455,131.713 41.750,132.112 41.301 C 132.511 40.852,133.136 39.891,133.500 39.167 C 133.864 38.443,134.389 37.591,134.667 37.275 C 134.945 36.958,135.398 36.203,135.673 35.597 C 135.947 34.991,136.499 34.017,136.900 33.433 C 137.300 32.848,137.824 31.781,138.065 31.060 C 138.305 30.340,138.655 29.525,138.843 29.250 C 139.588 28.157,139.979 27.167,140.390 25.333 C 140.626 24.279,141.054 22.704,141.342 21.833 C 143.650 14.850,139.702 8.021,134.083 9.280 M103.667 13.957 C 101.336 14.060,99.330 14.383,97.750 14.910 C 96.833 15.215,94.852 15.700,93.348 15.986 C 91.029 16.427,90.433 16.606,89.431 17.157 C 88.782 17.515,87.543 18.006,86.679 18.248 C 84.989 18.722,84.575 18.902,83.465 19.651 C 83.070 19.918,82.222 20.304,81.581 20.508 C 80.170 20.958,79.600 21.238,78.826 21.860 C 78.501 22.121,77.632 22.585,76.895 22.891 C 76.158 23.197,75.149 23.754,74.652 24.129 C 74.156 24.504,73.262 25.031,72.667 25.301 C 72.071 25.572,71.358 26.034,71.083 26.329 C 70.808 26.624,70.017 27.151,69.326 27.501 C 68.634 27.850,67.738 28.412,67.335 28.749 C 66.931 29.086,66.160 29.584,65.620 29.857 C 65.080 30.129,64.326 30.634,63.944 30.979 C 63.562 31.324,62.891 31.812,62.451 32.064 C 62.012 32.316,61.276 32.857,60.815 33.266 C 60.355 33.675,59.664 34.204,59.281 34.440 C 58.897 34.677,58.208 35.226,57.750 35.659 C 57.292 36.093,56.579 36.640,56.167 36.874 C 55.754 37.109,55.245 37.534,55.035 37.819 C 54.825 38.104,54.338 38.534,53.952 38.774 C 53.566 39.015,52.800 39.622,52.250 40.124 C 47.394 44.557,41.794 50.100,39.917 52.333 C 39.275 53.096,38.369 54.103,37.903 54.570 C 37.437 55.037,36.861 55.726,36.624 56.101 C 36.388 56.477,35.893 57.022,35.525 57.314 C 35.157 57.605,34.629 58.211,34.353 58.661 C 34.076 59.110,33.614 59.651,33.326 59.864 C 33.038 60.076,32.538 60.700,32.216 61.250 C 31.894 61.800,31.350 62.554,31.008 62.926 C 30.665 63.298,30.080 64.123,29.707 64.760 C 29.334 65.396,28.791 66.142,28.499 66.417 C 28.207 66.692,27.748 67.350,27.479 67.880 C 27.210 68.410,26.739 69.122,26.433 69.463 C 26.126 69.804,25.593 70.646,25.248 71.333 C 24.903 72.021,24.345 72.897,24.008 73.280 C 23.671 73.663,23.185 74.513,22.928 75.168 C 22.670 75.824,22.195 76.707,21.872 77.131 C 21.287 77.897,20.808 78.860,20.258 80.378 C 20.100 80.815,19.699 81.565,19.368 82.045 C 18.980 82.607,18.576 83.554,18.231 84.713 C 17.936 85.701,17.463 86.872,17.179 87.314 C 16.586 88.239,16.335 89.029,15.828 91.576 C 15.629 92.581,15.278 93.819,15.050 94.326 C 12.975 98.947,12.844 115.770,14.850 119.986 C 15.137 120.590,15.630 121.871,15.946 122.833 C 16.365 124.111,16.714 124.831,17.237 125.500 C 17.631 126.004,18.154 126.811,18.397 127.293 C 18.657 127.806,19.112 128.367,19.495 128.644 C 19.855 128.904,20.398 129.447,20.702 129.851 C 21.066 130.332,21.576 130.737,22.192 131.031 C 22.714 131.281,23.297 131.715,23.507 132.010 C 23.913 132.580,25.138 133.205,26.457 133.514 C 26.893 133.616,27.925 134.028,28.750 134.429 C 32.366 136.189,42.987 136.140,47.667 134.343 C 48.354 134.078,49.817 133.672,50.917 133.440 C 53.300 132.936,54.044 132.687,54.902 132.104 C 55.256 131.863,56.305 131.436,57.232 131.154 C 58.352 130.814,59.280 130.400,60.000 129.918 C 60.596 129.520,61.641 128.997,62.323 128.756 C 63.145 128.465,63.806 128.094,64.283 127.654 C 64.679 127.289,65.546 126.741,66.210 126.436 C 66.874 126.132,67.779 125.581,68.223 125.211 C 68.666 124.842,69.437 124.334,69.935 124.082 C 70.433 123.830,71.036 123.390,71.276 123.103 C 71.516 122.817,72.103 122.321,72.581 122.000 C 73.059 121.679,73.817 121.059,74.267 120.622 C 74.716 120.186,75.764 119.173,76.595 118.372 C 77.427 117.572,78.307 116.617,78.550 116.250 C 78.794 115.883,79.246 115.383,79.556 115.137 C 79.865 114.892,80.283 114.341,80.484 113.913 C 80.686 113.485,81.186 112.775,81.596 112.337 C 82.137 111.759,82.480 111.162,82.841 110.172 C 83.116 109.420,83.624 108.380,83.972 107.861 C 84.710 106.758,84.841 106.341,85.402 103.333 C 85.632 102.096,85.948 100.521,86.104 99.833 C 86.385 98.591,86.489 95.387,86.260 95.016 C 86.198 94.915,85.704 94.833,85.163 94.833 C 83.933 94.833,83.670 95.082,83.166 96.722 C 82.266 99.651,82.108 100.038,81.547 100.709 C 81.221 101.098,80.715 101.942,80.422 102.583 C 80.129 103.225,79.585 104.101,79.214 104.530 C 78.842 104.959,78.308 105.709,78.028 106.197 C 77.747 106.684,77.139 107.449,76.675 107.896 C 76.212 108.343,75.833 108.783,75.833 108.873 C 75.833 109.016,74.413 110.533,72.946 111.959 C 72.686 112.211,72.011 112.876,71.446 113.438 C 70.880 113.999,70.101 114.654,69.715 114.894 C 69.329 115.133,68.842 115.561,68.632 115.844 C 68.423 116.127,67.809 116.628,67.267 116.957 C 66.726 117.286,65.924 117.874,65.485 118.264 C 65.046 118.653,64.226 119.242,63.663 119.572 C 63.100 119.903,62.399 120.427,62.105 120.738 C 61.812 121.049,61.162 121.499,60.661 121.738 C 60.160 121.977,59.487 122.405,59.167 122.690 C 58.846 122.975,57.925 123.532,57.121 123.927 C 56.317 124.323,55.358 124.905,54.989 125.221 C 54.606 125.549,53.697 126.025,52.868 126.333 C 52.070 126.629,51.154 127.076,50.833 127.327 C 50.006 127.973,49.444 128.234,47.833 128.723 C 47.054 128.960,46.043 129.391,45.586 129.681 C 41.758 132.113,27.372 132.215,25.250 129.826 C 25.066 129.620,24.523 129.198,24.043 128.888 C 23.562 128.578,23.041 128.120,22.884 127.870 C 22.728 127.621,22.250 127.038,21.822 126.575 C 21.394 126.111,21.002 125.586,20.952 125.408 C 19.216 119.256,18.977 116.184,19.882 111.667 C 20.130 110.429,20.478 108.323,20.655 106.986 C 21.055 103.967,21.337 102.859,22.065 101.463 C 22.379 100.860,22.760 99.778,22.912 99.059 C 23.275 97.335,23.610 96.431,24.266 95.404 C 24.564 94.938,25.076 93.738,25.404 92.737 C 25.799 91.531,26.194 90.674,26.574 90.197 C 26.890 89.801,27.275 89.126,27.430 88.697 C 27.970 87.207,28.521 86.081,28.914 85.667 C 29.131 85.438,29.573 84.667,29.897 83.954 C 30.220 83.241,30.749 82.335,31.072 81.941 C 31.395 81.547,31.918 80.657,32.234 79.964 C 32.550 79.270,33.072 78.439,33.394 78.117 C 33.717 77.794,34.244 77.007,34.566 76.367 C 34.889 75.727,35.462 74.845,35.841 74.407 C 36.221 73.969,36.723 73.204,36.958 72.708 C 37.194 72.211,37.605 71.643,37.872 71.445 C 38.140 71.247,38.631 70.635,38.965 70.084 C 39.298 69.534,39.878 68.746,40.253 68.333 C 40.629 67.921,41.188 67.171,41.496 66.667 C 41.804 66.162,42.337 65.450,42.680 65.083 C 43.024 64.717,43.545 64.004,43.838 63.500 C 44.132 62.996,44.666 62.332,45.024 62.025 C 45.382 61.718,45.796 61.234,45.943 60.949 C 46.090 60.664,46.632 60.007,47.147 59.489 C 47.662 58.971,48.646 57.889,49.333 57.085 C 50.021 56.281,50.962 55.202,51.425 54.687 C 51.888 54.171,52.597 53.337,53.001 52.833 C 53.817 51.816,55.560 49.960,56.579 49.025 C 56.943 48.690,58.676 46.992,60.430 45.250 C 63.878 41.827,65.481 40.354,67.155 39.071 C 67.745 38.620,68.485 37.969,68.800 37.625 C 69.115 37.281,69.661 36.837,70.014 36.639 C 70.366 36.441,70.881 35.997,71.157 35.654 C 71.433 35.310,72.017 34.788,72.455 34.493 C 72.892 34.199,73.493 33.675,73.791 33.329 C 74.088 32.983,74.650 32.511,75.041 32.281 C 75.431 32.051,75.975 31.624,76.250 31.333 C 76.525 31.041,77.275 30.462,77.917 30.047 C 78.558 29.632,79.395 29.006,79.777 28.656 C 80.158 28.307,80.833 27.835,81.277 27.608 C 81.720 27.381,82.383 26.880,82.750 26.494 C 83.117 26.108,83.799 25.620,84.266 25.410 C 84.733 25.199,85.483 24.708,85.933 24.318 C 86.382 23.928,87.313 23.350,88.000 23.033 C 88.688 22.716,89.550 22.183,89.917 21.848 C 90.343 21.459,91.065 21.068,91.917 20.763 C 92.650 20.501,93.635 20.002,94.104 19.653 C 94.574 19.305,95.324 18.907,95.771 18.769 C 96.218 18.631,97.221 18.327,98.000 18.095 C 98.923 17.819,99.666 17.472,100.133 17.098 C 101.428 16.061,104.374 15.794,105.568 16.605 L 106.213 17.044 106.115 18.397 C 106.061 19.141,105.942 19.975,105.850 20.250 C 105.758 20.525,105.606 21.053,105.511 21.423 C 105.415 21.799,105.006 22.487,104.583 22.982 C 104.167 23.470,103.637 24.255,103.406 24.727 C 103.175 25.199,102.571 26.072,102.063 26.668 C 101.556 27.263,100.997 28.028,100.821 28.368 C 100.645 28.707,100.236 29.195,99.913 29.451 C 99.590 29.707,99.123 30.217,98.877 30.583 C 98.630 30.950,97.988 31.700,97.451 32.250 C 91.899 37.938,90.665 39.167,90.511 39.167 C 90.413 39.167,90.068 39.536,89.744 39.986 C 89.420 40.437,88.801 41.035,88.369 41.315 C 87.937 41.594,87.407 42.085,87.191 42.405 C 86.976 42.725,86.434 43.222,85.988 43.508 C 85.541 43.794,85.024 44.275,84.838 44.575 C 84.652 44.876,84.181 45.331,83.792 45.586 C 83.402 45.841,82.664 46.470,82.151 46.983 C 81.033 48.102,79.444 49.496,78.368 50.302 C 77.936 50.625,77.171 51.275,76.667 51.745 C 76.162 52.216,75.412 52.834,75.000 53.119 C 74.587 53.405,73.990 53.917,73.673 54.259 C 73.355 54.601,72.755 55.091,72.339 55.349 C 71.924 55.607,71.373 56.085,71.117 56.411 C 70.860 56.736,70.284 57.188,69.836 57.416 C 69.387 57.643,68.822 58.088,68.580 58.406 C 68.338 58.723,67.730 59.215,67.229 59.497 C 66.728 59.780,65.876 60.417,65.337 60.913 C 64.798 61.409,64.032 61.978,63.637 62.177 C 62.736 62.630,62.336 62.977,62.148 63.467 C 62.060 63.699,61.687 63.988,61.209 64.196 C 59.980 64.730,59.361 65.265,59.243 65.895 C 59.134 66.476,58.232 67.000,56.879 67.267 C 55.368 67.566,55.810 68.333,57.492 68.333 C 58.894 68.333,59.188 68.175,59.394 67.307 C 59.486 66.919,59.605 66.851,60.374 66.751 C 61.498 66.605,62.876 65.984,63.671 65.266 C 64.035 64.937,64.679 64.590,65.212 64.435 C 65.820 64.258,66.402 63.923,66.939 63.440 C 67.385 63.040,68.300 62.435,68.972 62.097 C 69.643 61.759,70.506 61.198,70.888 60.850 C 71.271 60.503,72.060 59.967,72.642 59.660 C 73.225 59.353,73.816 58.926,73.957 58.712 C 74.097 58.498,74.665 58.057,75.218 57.733 C 75.771 57.409,76.605 56.821,77.070 56.426 C 77.536 56.031,78.329 55.443,78.833 55.120 C 79.337 54.797,80.012 54.258,80.333 53.922 C 80.654 53.586,81.268 53.120,81.697 52.885 C 82.126 52.651,82.707 52.172,82.990 51.821 C 83.272 51.470,83.896 50.920,84.376 50.600 C 84.857 50.280,85.340 49.871,85.450 49.691 C 85.560 49.512,86.216 48.938,86.908 48.418 C 87.600 47.897,88.167 47.411,88.167 47.339 C 88.167 47.266,88.598 46.882,89.125 46.486 C 92.791 43.728,101.800 34.633,103.649 31.823 C 103.985 31.313,104.538 30.617,104.880 30.276 C 105.221 29.935,105.690 29.280,105.922 28.822 C 106.155 28.364,106.637 27.687,106.995 27.318 C 107.470 26.829,107.792 26.239,108.186 25.138 C 108.483 24.308,108.938 23.318,109.196 22.939 C 110.043 21.699,110.569 18.892,110.262 17.254 C 110.144 16.625,108.755 15.061,107.700 14.368 C 107.246 14.070,105.391 13.881,103.667 13.957 M137.402 16.346 C 138.406 17.539,137.982 21.647,136.589 24.221 C 136.283 24.787,135.832 25.960,135.587 26.827 C 135.080 28.617,134.948 28.916,134.405 29.500 C 134.192 29.729,133.684 30.685,133.276 31.625 C 132.868 32.565,132.293 33.608,131.998 33.945 C 131.702 34.281,131.255 35.014,131.004 35.574 C 130.753 36.133,130.252 36.933,129.891 37.351 C 129.529 37.768,128.924 38.704,128.546 39.431 C 128.168 40.157,127.641 40.913,127.374 41.110 C 127.107 41.308,126.673 41.895,126.410 42.415 C 126.147 42.936,125.708 43.550,125.435 43.779 C 125.161 44.009,124.571 44.730,124.123 45.381 C 123.675 46.031,122.972 46.859,122.562 47.220 C 122.152 47.581,121.594 48.317,121.322 48.855 C 120.788 49.914,120.683 49.984,120.298 49.542 C 119.526 48.654,119.827 46.802,121.074 44.762 C 121.294 44.402,121.634 43.464,121.830 42.678 C 122.181 41.268,122.670 40.098,123.350 39.041 C 123.542 38.742,123.939 37.692,124.232 36.707 C 124.581 35.538,124.979 34.608,125.381 34.027 C 125.747 33.496,126.197 32.486,126.495 31.527 C 126.802 30.536,127.247 29.546,127.652 28.954 C 128.013 28.424,128.504 27.404,128.743 26.687 C 128.990 25.947,129.502 24.922,129.928 24.317 C 130.341 23.731,130.837 22.818,131.030 22.289 C 131.223 21.760,131.656 21.010,131.993 20.622 C 132.330 20.234,132.990 19.277,133.459 18.495 C 134.306 17.082,134.458 16.944,136.107 16.084 C 136.774 15.736,136.912 15.764,137.402 16.346 M282.667 33.980 C 281.304 34.387,281.045 34.586,280.513 35.640 C 280.246 36.169,279.755 36.929,279.421 37.329 C 278.709 38.180,278.445 38.664,277.901 40.109 C 277.681 40.694,277.303 41.472,277.061 41.838 C 275.886 43.613,276.814 45.327,279.885 47.051 C 281.748 48.097,281.861 48.073,282.840 46.417 C 283.057 46.050,283.586 45.287,284.016 44.722 C 284.493 44.094,284.941 43.251,285.166 42.555 C 285.370 41.929,285.718 41.133,285.940 40.787 C 286.163 40.440,286.462 39.639,286.605 39.006 L 286.865 37.855 286.376 37.136 C 286.107 36.740,285.637 35.943,285.331 35.364 C 284.790 34.339,284.145 33.647,283.769 33.686 C 283.667 33.697,283.171 33.829,282.667 33.980 M205.032 34.406 C 204.743 34.735,204.384 35.247,204.235 35.544 C 204.086 35.841,203.676 36.383,203.325 36.750 C 202.954 37.137,202.448 37.976,202.119 38.750 C 201.807 39.483,201.280 40.481,200.949 40.966 C 199.553 43.009,199.873 44.878,201.833 46.122 C 202.338 46.442,202.900 46.835,203.083 46.997 C 203.303 47.190,203.831 47.326,204.626 47.396 L 205.836 47.503 206.394 46.626 C 206.701 46.144,207.112 45.413,207.308 45.000 C 207.503 44.587,207.925 43.928,208.244 43.535 C 210.070 41.284,210.282 36.484,208.635 34.712 C 207.722 33.730,205.771 33.564,205.032 34.406 M347.597 59.587 C 349.225 60.047,349.408 61.834,348.094 64.443 C 347.675 65.277,347.490 65.906,347.406 66.782 L 347.292 67.982 348.211 68.949 C 349.708 70.526,349.754 72.174,348.343 73.732 C 348.002 74.109,347.379 75.054,346.958 75.833 C 346.537 76.612,345.954 77.475,345.664 77.750 C 345.373 78.025,344.917 78.679,344.651 79.203 C 344.385 79.727,343.950 80.317,343.685 80.513 C 343.420 80.709,342.919 81.387,342.572 82.021 C 342.224 82.655,341.619 83.549,341.227 84.009 C 340.834 84.469,340.276 85.291,339.985 85.836 C 339.695 86.381,339.203 87.020,338.893 87.257 C 338.582 87.494,338.149 88.039,337.929 88.469 C 337.709 88.898,337.254 89.513,336.917 89.833 C 336.579 90.154,335.976 90.904,335.576 91.500 C 335.175 92.096,334.248 93.219,333.515 93.995 L 332.183 95.407 331.742 94.995 C 330.680 94.004,330.465 93.200,330.663 90.949 C 331.044 86.601,331.456 84.615,332.346 82.833 C 332.689 82.146,333.125 80.891,333.315 80.045 C 333.708 78.290,333.983 77.567,334.663 76.502 C 334.927 76.088,335.370 74.982,335.648 74.044 C 336.199 72.181,336.362 71.809,336.923 71.134 C 337.246 70.745,337.550 70.046,338.381 67.775 C 338.476 67.514,338.809 66.996,339.119 66.624 C 339.430 66.252,339.985 65.341,340.353 64.599 C 340.720 63.857,341.327 62.950,341.701 62.583 C 342.075 62.217,342.548 61.653,342.751 61.331 C 343.240 60.558,343.506 60.350,344.815 59.719 C 345.965 59.165,346.084 59.159,347.597 59.587 M233.497 88.625 C 233.490 88.990,233.172 89.233,233.169 88.875 C 233.168 88.669,233.242 88.500,233.333 88.500 C 233.425 88.500,233.499 88.556,233.497 88.625 " stroke="none" fill="#303536" fill-rule="evenodd"></path></g></svg>